<svg xmlns="http://www.w3.org/2000/svg" width="104.632" height="104.632" viewBox="0 0 104.632 104.632">
    <g fill="#fff">
        <path d="M 52.3160400390625 104.132080078125 C 45.32070541381836 104.132080078125 38.53488159179688 102.7621459960938 32.14702606201172 100.0603332519531 C 29.07681274414063 98.76175689697266 26.11556053161621 97.15444183349609 23.34553337097168 95.28302764892578 C 20.60169410705566 93.42933654785156 18.02148056030273 91.30045318603516 15.67657375335693 88.95553588867188 C 13.33161354064941 86.61058807373047 11.20274639129639 84.03037261962891 9.349066734313965 81.28654479980469 C 7.477680206298828 78.51654815673828 5.870359897613525 75.55529022216797 4.571760177612305 72.48505401611328 C 1.869933366775513 66.09722900390625 0.5000000596046448 59.31138610839844 0.5000000596046448 52.3160400390625 C 0.5000000596046448 45.32070541381836 1.869933366775513 38.53486633300781 4.571760177612305 32.14702606201172 C 5.870333194732666 29.07681274414063 7.477653503417969 26.11556053161621 9.349066734313965 23.34553337097168 C 11.20271968841553 20.60173416137695 13.33160018920898 18.02152061462402 15.6765604019165 15.67657375335693 C 18.02152061462402 13.33160018920898 20.60173416137695 11.20271968841553 23.34553337097168 9.349066734313965 C 26.11556053161621 7.477653503417969 29.07681274414063 5.870333194732666 32.14702606201172 4.571760177612305 C 38.53486633300781 1.869933366775513 45.32070541381836 0.5000000596046448 52.3160400390625 0.5000000596046448 C 59.31138610839844 0.5000000596046448 66.09722900390625 1.869933366775513 72.48505401611328 4.571760177612305 C 75.55529022216797 5.870359897613525 78.51654815673828 7.477680206298828 81.28654479980469 9.349066734313965 C 84.03037261962891 11.20274639129639 86.61058807373047 13.33161354064941 88.95552062988281 15.6765604019165 C 91.30045318603516 18.02148056030273 93.42933654785156 20.60169410705566 95.28302764892578 23.34553337097168 C 97.15444183349609 26.11556053161621 98.76175689697266 29.07681274414063 100.0603332519531 32.14702606201172 C 102.7621459960938 38.53488159179688 104.132080078125 45.32070541381836 104.132080078125 52.3160400390625 C 104.132080078125 59.31138610839844 102.7621459960938 66.09721374511719 100.0603332519531 72.48505401611328 C 98.76173400878906 75.55529022216797 97.15441131591797 78.51654815673828 95.28302764892578 81.28654479980469 C 93.42930603027344 84.03041076660156 91.30043792724609 86.61062622070313 88.95553588867188 88.95552062988281 C 86.61062622070313 91.30043792724609 84.03041076660156 93.42930603027344 81.28654479980469 95.28302764892578 C 78.51654815673828 97.15441131591797 75.55529022216797 98.76173400878906 72.48505401611328 100.0603332519531 C 66.09721374511719 102.7621459960938 59.31138610839844 104.132080078125 52.3160400390625 104.132080078125 Z M 25.22074699401855 60.18672180175781 L 26.37495994567871 61.08182525634766 L 52.00962829589844 80.96183776855469 L 52.3160400390625 81.19947052001953 L 52.62245178222656 80.96183776855469 L 78.25759887695313 61.08182525634766 L 79.41184234619141 60.18672180175781 L 77.95118713378906 60.18672180175781 L 63.27962493896484 60.18672180175781 L 63.27962493896484 24.06534576416016 L 63.27962493896484 23.56534576416016 L 62.77962493896484 23.56534576416016 L 41.85293197631836 23.56534576416016 L 41.35293197631836 23.56534576416016 L 41.35293197631836 24.06534576416016 L 41.35293197631836 60.18672180175781 L 26.68137359619141 60.18672180175781 L 25.22074699401855 60.18672180175781 Z" stroke="none"/>
        <path d="M 52.3160400390625 103.632080078125 C 59.24409866333008 103.632080078125 65.96439361572266 102.2754364013672 72.290283203125 99.59983825683594 C 75.33078002929688 98.31381225585938 78.26339721679688 96.72203826904297 81.00665283203125 94.86871337890625 C 83.72412872314453 93.03282928466797 86.27955627441406 90.92440032958984 88.60198211669922 88.60198211669922 C 90.92440032958984 86.27955627441406 93.03282928466797 83.72412872314453 94.86872863769531 81.00663757324219 C 96.72203826904297 78.26339721679688 98.31381225585938 75.33078002929688 99.59983825683594 72.29029846191406 C 102.2754364013672 65.96439361572266 103.632080078125 59.24409866333008 103.632080078125 52.3160400390625 C 103.632080078125 45.38799667358398 102.2754364013672 38.66769790649414 99.59983825683594 32.341796875 C 98.3138427734375 29.30134010314941 96.72205352783203 26.36872482299805 94.86871337890625 23.62542533874512 C 93.03281402587891 20.90793991088867 90.92438507080078 18.35251235961914 88.60198211669922 16.03011131286621 C 86.27951049804688 13.70765399932861 83.72408294677734 11.5992259979248 81.00663757324219 9.763368606567383 C 78.26339721679688 7.910054206848145 75.33078002929688 6.318283081054688 72.290283203125 5.032254219055176 C 65.96440887451172 2.356640100479126 59.24411010742188 0.9999971985816956 52.3160400390625 0.9999971985816956 C 45.38798141479492 0.9999971985816956 38.66768264770508 2.356640100479126 32.341796875 5.032254219055176 C 29.30134010314941 6.318254470825195 26.36872482299805 7.910039901733398 23.62542533874512 9.763382911682129 C 20.90798377990723 11.59924030303955 18.35255432128906 13.70766830444336 16.03011131286621 16.03012657165527 C 13.70766830444336 18.35255432128906 11.59924030303955 20.90798377990723 9.763382911682129 23.62544059753418 C 7.910039901733398 26.36872482299805 6.318254470825195 29.30134010314941 5.032254219055176 32.34181213378906 C 2.356640100479126 38.66768264770508 0.9999971985816956 45.38798141479492 0.9999971985816956 52.3160400390625 C 0.9999971985816956 59.24411010742188 2.356640100479126 65.96440887451172 5.032254219055176 72.290283203125 C 6.318283081054688 75.33078002929688 7.910054206848145 78.26339721679688 9.763382911682129 81.00665283203125 C 11.5992259979248 83.72408294677734 13.70765399932861 86.27951049804688 16.03012657165527 88.60198211669922 C 18.35251235961914 90.92438507080078 20.90793991088867 93.03281402587891 23.62544059753418 94.86871337890625 C 26.36872482299805 96.72205352783203 29.30134010314941 98.3138427734375 32.341796875 99.59983825683594 C 38.66769790649414 102.2754364013672 45.38799667358398 103.632080078125 52.3160400390625 103.632080078125 M 23.76011085510254 59.68672561645508 L 26.68136787414551 59.68672561645508 L 40.85292434692383 59.68672561645508 L 40.85292434692383 24.06535339355469 L 40.85292434692383 23.06535339355469 L 41.85292434692383 23.06535339355469 L 62.77962493896484 23.06535339355469 L 63.77962493896484 23.06535339355469 L 63.77962493896484 24.06535339355469 L 63.77962493896484 59.68672561645508 L 77.95117950439453 59.68672561645508 L 80.87248229980469 59.68672561645508 L 78.56399536132813 61.47695541381836 L 52.92885589599609 81.35697174072266 L 52.3160400390625 81.83221435546875 L 51.70321273803711 81.35695648193359 L 26.06854057312012 61.4769401550293 L 23.76011085510254 59.68672561645508 M 52.3160400390625 104.632080078125 C 45.25342559814453 104.632080078125 38.40205383300781 103.2488555908203 31.95225524902344 100.5208435058594 C 28.8523120880127 99.20968627929688 25.86242485046387 97.58682250976563 23.06562614440918 95.69734191894531 C 20.29539680480957 93.82581329345703 17.69041061401367 91.67649841308594 15.32301139831543 89.30908203125 C 12.95559692382813 86.94166564941406 10.8062686920166 84.33668518066406 8.934754371643066 81.56645202636719 C 7.045268535614014 78.76966857910156 5.422411441802979 75.77976989746094 4.111254215240479 72.67984008789063 C 1.383225798606873 66.23004150390625 -2.818080247379839e-06 59.37866973876953 -2.818080247379839e-06 52.3160400390625 C -2.818080247379839e-06 45.25342559814453 1.383225798606873 38.40205383300781 4.111254215240479 31.95225524902344 C 5.422411441802979 28.8523120880127 7.045268535614014 25.86242485046387 8.934754371643066 23.06562614440918 C 10.8062686920166 20.29539680480957 12.95559692382813 17.69041061401367 15.32301139831543 15.32301139831543 C 17.69041061401367 12.95559692382813 20.29539680480957 10.8062686920166 23.06562614440918 8.934754371643066 C 25.86242485046387 7.045268535614014 28.8523120880127 5.422411441802979 31.95225524902344 4.111254215240479 C 38.40205383300781 1.383225798606873 45.25342559814453 -2.818080247379839e-06 52.3160400390625 -2.818080247379839e-06 C 59.37866973876953 -2.818080247379839e-06 66.23004150390625 1.383225798606873 72.67984008789063 4.111254215240479 C 75.77976989746094 5.422411441802979 78.76966857910156 7.045268535614014 81.56645202636719 8.934754371643066 C 84.33668518066406 10.8062686920166 86.94166564941406 12.95559692382813 89.30908203125 15.32301139831543 C 91.67649841308594 17.69041061401367 93.82581329345703 20.29539680480957 95.69734191894531 23.06562614440918 C 97.58682250976563 25.86242485046387 99.20968627929688 28.8523120880127 100.5208435058594 31.95225524902344 C 103.2488555908203 38.40205383300781 104.632080078125 45.25342559814453 104.632080078125 52.3160400390625 C 104.632080078125 59.37866973876953 103.2488555908203 66.23004150390625 100.5208435058594 72.67984008789063 C 99.20968627929688 75.77976989746094 97.58682250976563 78.76966857910156 95.69734191894531 81.56645202636719 C 93.82581329345703 84.33668518066406 91.67649841308594 86.94166564941406 89.30908203125 89.30908203125 C 86.94166564941406 91.67649841308594 84.33668518066406 93.82581329345703 81.56645202636719 95.69734191894531 C 78.76966857910156 97.58682250976563 75.77976989746094 99.20968627929688 72.67984008789063 100.5208435058594 C 66.23004150390625 103.2488555908203 59.37866973876953 104.632080078125 52.3160400390625 104.632080078125 Z M 26.68136787414551 60.68672561645508 L 52.3160400390625 80.56674194335938 L 77.95117950439453 60.68672561645508 L 62.77962493896484 60.68672561645508 L 62.77962493896484 24.06535339355469 L 41.85292434692383 24.06535339355469 L 41.85292434692383 60.68672561645508 L 26.68136787414551 60.68672561645508 Z" stroke="none" fill="#FFFFFF"/>
    </g>
</svg>